<?xml version="1.0" encoding="UTF-8"?>
<svg width="100px" height="100px" viewBox="0 0 100 100" version="1.1" xmlns="http://www.w3.org/2000/svg" xmlns:xlink="http://www.w3.org/1999/xlink">
    <!-- Generator: Sketch 52.2 (67145) - http://www.bohemiancoding.com/sketch -->
    <title>platform-logo-sm</title>
    <desc>Created with Sketch.</desc>
    <defs>
        <linearGradient x1="50%" y1="0%" x2="50%" y2="100%" id="linearGradient-1">
            <stop stop-color="#5137E0" offset="0%"></stop>
            <stop stop-color="#6C69EB" offset="100%"></stop>
        </linearGradient>
    </defs>
    <g id="platform-logo-sm" stroke="none" stroke-width="1" fill="none" fill-rule="evenodd">
        <g id="Group">
            <circle id="Oval" fill="url(#linearGradient-1)" fill-rule="nonzero" cx="50" cy="50" r="50"></circle>
            <path d="M47.7015733,72.6964464 C44.9483638,72.6964464 42.5393417,72.4230508 40.4744346,71.8762513 C38.4095275,71.3294517 36.1152207,70.5380432 33.5914454,69.502002 L33.5914454,58.1919419 C38.2374864,61.7029705 43.1128883,63.4584585 48.2177974,63.4584585 C50.1679875,63.4584585 51.5875898,63.1275058 52.476647,62.4655906 C53.3657042,61.8036754 53.8102262,60.8971529 53.8102262,59.745996 C53.8102262,58.4221656 53.0932553,57.4436969 51.659292,56.8105606 C50.2253288,56.1774243 47.931022,55.4867405 44.7763029,54.7384885 C41.4495081,54.0477943 38.7106794,52.6664268 36.5597345,50.5943443 C34.4087896,48.5222619 33.3333333,45.5005204 33.3333333,41.529029 C33.3333333,38.1331162 34.1936984,35.3416025 35.9144543,33.1544044 C37.6352102,30.9672063 39.8004622,29.37 42.4102753,28.3627377 C45.0200884,27.3554754 47.7302383,26.8518519 50.5408063,26.8518519 C53.9823181,26.8518519 56.7785045,27.154026 58.9294494,27.7583834 C60.8395062,28.2950577 62.7156152,29.0927005 64.5578206,30.1513314 C64.7901515,30.2848413 66.8287278,31.8521135 67.0599803,31.9939256 C66.5551992,32.7675781 66.2056309,33.7847958 66.0112755,35.0455787 C65.8270029,36.2409545 65.7240583,38.2318876 65.7024416,41.018378 C62.7771566,39.4067583 60.0622827,37.9029064 58.4562439,37.2122122 C56.850205,36.5215181 54.9860808,36.1761762 52.8638151,36.1761762 C50.7415495,36.1761762 49.1642136,36.5071288 48.1317601,37.169044 C47.0993065,37.8309593 46.5830875,38.7662602 46.5830875,39.974975 C46.5830875,41.4139211 47.1566642,42.464336 48.3038348,43.1262513 C49.4510054,43.7881665 51.2864508,44.464461 53.8102262,45.1551552 C56.6781527,45.9034071 58.9437806,46.6372587 60.607178,47.3567317 C62.2705753,48.0762048 63.7618748,49.3136799 65.0811209,51.0691942 C66.4003671,52.8247085 67.0599803,55.2852695 67.0599803,58.450951 C66.9452633,63.4009257 65.081139,67.0126263 61.4675516,69.2861612 C57.8539642,71.5596961 53.2653507,72.6964464 47.7015733,72.6964464 Z" id="Path" fill="#FFFFFF"></path>
        </g>
    </g>
</svg>